<svg xmlns:xlink="http://www.w3.org/1999/xlink" width="64" height="64" viewBox="0 0 64 64" fill="none" stroke="none" xmlns="http://www.w3.org/2000/svg"><title fill="none">ricon medicine light</title><path d="M45.0789 30.6387C44.5525 29.5911 43.7451 28.7105 42.7468 28.0955C41.7486 27.4805 40.5989 27.1553 39.4265 27.1563C38.4426 27.1572 37.4725 27.3883 36.594 27.8313C35.8526 28.2038 35.1919 28.7188 34.6496 29.3467C34.1073 29.9747 33.6939 30.7033 33.4332 31.491C33.1725 32.2787 33.0696 33.11 33.1302 33.9375C33.1908 34.765 33.4138 35.5724 33.7865 36.3137L45.9464 60.5161C46.4725 61.5637 47.2795 62.4444 48.2772 63.0598C49.275 63.6752 50.4241 64.0011 51.5964 64.0011C52.5804 64.0007 53.5505 63.7696 54.4289 63.3261C55.1714 62.9544 55.8334 62.44 56.377 61.8123C56.9207 61.1846 57.3353 60.456 57.5972 59.668C57.859 58.88 57.9631 58.0481 57.9033 57.2199C57.8436 56.3917 57.6212 55.5834 57.2489 54.8411L45.0789 30.6387ZM43.5214 50.6637L40.249 44.1387L47.4989 40.5012L50.7764 47.0262L43.5214 50.6637Z" fill="url(&quot;#paint0_linear_1437_196&quot;)"></path><path d="M37.9999 51.3823L41.9999 59.3422V59.9997C41.9999 61.0606 41.5785 62.078 40.8283 62.8282C40.0782 63.5783 39.0608 63.9997 37.9999 63.9997H10C8.93917 63.9997 7.92175 63.5783 7.17161 62.8282C6.42147 62.078 6.00004 61.0606 6.00004 59.9997V24.9724C5.99539 23.1332 6.35534 21.3113 7.05908 19.612C7.76281 17.9128 8.79637 16.3698 10.1 15.0724L16 9.17246V3.99998C16 2.93912 16.4214 1.92171 17.1716 1.17156C17.9217 0.421423 18.9391 0 20 0H28C29.0608 0 30.0782 0.421423 30.8284 1.17156C31.5785 1.92171 31.9999 2.93912 31.9999 3.99998V9.17246L37.8999 15.0724C40.4218 17.575 41.889 20.9488 41.9999 24.4999C41.1667 24.2657 40.3054 24.1471 39.4399 24.1474C38.9525 24.1487 38.466 24.1889 37.9849 24.2674C37.8244 21.8603 36.7925 19.594 35.0824 17.8924L28 10.83V3.99998H20V10.83L12.93 17.8999C11.9981 18.8264 11.2592 19.9285 10.7563 21.1425C10.2533 22.3566 9.99628 23.6583 10 24.9724V59.9997H37.9999V51.3823ZM31.9999 43.9998H25V36.9998H21V43.9998H14V47.9998H21V54.9998H25V47.9998H31.9999V43.9998Z" fill="url(&quot;#paint1_linear_1437_196&quot;)"></path><defs><linearGradient id="paint0_linear_1437_196" x1="33.1133" y1="64.0011" x2="67.2516" y2="41.0169" gradientUnits="userSpaceOnUse"><stop stop-color="#F81E42"></stop><stop offset="1" stop-color="#FA6981"></stop></linearGradient><linearGradient id="paint1_linear_1437_196" x1="6" y1="0" x2="50.9685" y2="56.9134" gradientUnits="userSpaceOnUse"><stop offset="0.272135" stop-color="#34263B"></stop><stop offset="0.658079" stop-color="#13172C"></stop></linearGradient><linearGradient id="paint0_linear_1437_196" x1="33.1133" y1="64.0011" x2="67.2516" y2="41.0169" gradientUnits="userSpaceOnUse"><stop stop-color="#F81E42"></stop><stop offset="1" stop-color="#FA6981"></stop></linearGradient><linearGradient id="paint1_linear_1437_196" x1="6" y1="0" x2="50.9685" y2="56.9134" gradientUnits="userSpaceOnUse"><stop offset="0.272135" stop-color="#34263B"></stop><stop offset="0.658079" stop-color="#13172C"></stop></linearGradient></defs></svg>