<svg xmlns:xlink="http://www.w3.org/1999/xlink" width="64" height="64" viewBox="0 0 64 64" fill="none" stroke="none" xmlns="http://www.w3.org/2000/svg"><title fill="none">ricon mental health light</title><path d="M32 50C28.895 50 26.25 48.645 24.945 47.8375L23.245 46.785L25.355 43.385L27.055 44.44C28 45.0225 29.885 46 32 46C34.155 46 35.775 45.165 36.945 44.44L38.645 43.385L40.755 46.785L39.055 47.8375C37.5575 48.7675 35.2 50 32 50ZM28.3825 37.045L29.455 35.6625L26.705 33.505L25.6325 34.8875C25.6325 34.8875 24.5125 36.25 23.0575 36.25H23.025C21.8275 36.2325 20.665 35.2125 20.325 34.8275L19.18 33.5L16.5325 35.785L17.675 37.11C17.905 37.375 19.9975 39.7025 22.975 39.745H23.06C26.19 39.75 28.165 37.325 28.3825 37.045ZM46.3825 37.045L47.455 35.6625L44.705 33.505L43.6325 34.8875C43.6325 34.8875 42.5125 36.25 41.0575 36.25H41.025C39.8275 36.2325 38.665 35.2125 38.325 34.8275L37.18 33.5L34.5325 35.785L35.675 37.11C35.905 37.375 37.9975 39.7025 40.975 39.745H41.06C44.19 39.75 46.165 37.325 46.3825 37.045ZM46.67 8.16003C46.89 9.05418 47.0008 9.97171 47 10.8925C46.9962 11.6303 46.9124 12.3654 46.75 13.085C50.6939 16.1577 53.5798 20.3853 55.0047 25.1775C56.4295 29.9697 56.3223 35.0873 54.6978 39.8156C53.0733 44.5439 50.0128 48.6468 45.9435 51.5515C41.8743 54.4561 36.9996 56.0175 32 56.0175C27.0004 56.0175 22.1257 54.4561 18.0565 51.5515C13.9872 48.6468 10.9267 44.5439 9.30222 39.8156C7.67775 35.0873 7.57047 29.9697 8.99533 25.1775C10.4202 20.3853 13.3061 16.1577 17.25 13.085C17.0875 12.3663 17.0036 11.6319 17 10.895C16.9992 9.97421 17.11 9.05668 17.33 8.16253C12.1368 11.3569 8.1282 16.1591 5.91317 21.8395C3.69814 27.5199 3.39775 33.7681 5.05764 39.6348C6.71754 45.5015 10.247 50.6661 15.1098 54.3439C19.9726 58.0218 25.903 60.0119 32 60.0119C38.097 60.0119 44.0274 58.0218 48.8902 54.3439C53.753 50.6661 57.2825 45.5015 58.9424 39.6348C60.6023 33.7681 60.3019 27.5199 58.0868 21.8395C55.8718 16.1591 51.8632 11.3569 46.67 8.16253V8.16003Z" fill="url(&quot;#paint0_linear_2404_1239&quot;)"></path><path d="M32 7.71501C28.185 1.28751 20 3.75001 20 10.8925C20 18.0925 32.0275 25.5 32.0275 25.5C32.0275 25.5 44 18.0925 44 10.8925C44 3.75001 35.815 1.28751 32 7.71501Z" fill="url(&quot;#paint1_linear_2404_1239&quot;)"></path><defs><linearGradient id="paint0_linear_2404_1239" x1="4" y1="8.16003" x2="30.3581" y2="72.2102" gradientUnits="userSpaceOnUse"><stop offset="0.272135" stop-color="#34263B"></stop><stop offset="0.658079" stop-color="#13172C"></stop></linearGradient><linearGradient id="paint1_linear_2404_1239" x1="20" y1="25.5" x2="41.3709" y2="1.64445" gradientUnits="userSpaceOnUse"><stop stop-color="#F81E42"></stop><stop offset="1" stop-color="#FA6981"></stop></linearGradient><linearGradient id="paint0_linear_2404_1239" x1="4" y1="8.16003" x2="30.3581" y2="72.2102" gradientUnits="userSpaceOnUse"><stop offset="0.272135" stop-color="#34263B"></stop><stop offset="0.658079" stop-color="#13172C"></stop></linearGradient><linearGradient id="paint1_linear_2404_1239" x1="20" y1="25.5" x2="41.3709" y2="1.64445" gradientUnits="userSpaceOnUse"><stop stop-color="#F81E42"></stop><stop offset="1" stop-color="#FA6981"></stop></linearGradient></defs></svg>