<svg xmlns:xlink="http://www.w3.org/1999/xlink" width="64" height="64" viewBox="0 0 64 64" fill="none" stroke="none" xmlns="http://www.w3.org/2000/svg"><title fill="none">ricon add user dark</title><path d="M48 58.5L41.22 53.625L33.3525 59.435C32.9611 59.7248 32.487 59.8813 32 59.8813C31.513 59.8813 31.0389 59.7248 30.6475 59.435L19.4275 51.1475C14.2225 47.3026 10.6353 41.6577 9.36499 35.3125L6.04499 18.7025C5.94684 18.2133 6.01239 17.7055 6.23152 17.2573C6.45065 16.8091 6.81119 16.4454 7.25749 16.2225L30.9825 4.35997C31.2978 4.20008 31.6464 4.11676 32 4.11676C32.3536 4.11676 32.7021 4.20008 33.0175 4.35997L56.75 16.2225C57.1963 16.4454 57.5568 16.8091 57.776 17.2573C57.9951 17.7055 58.0606 18.2133 57.9625 18.7025L54.6425 35.3125C54.3595 36.7183 53.9624 38.0987 53.455 39.44C53.0375 40.5175 60.045 48.25 59.5 49.25C57.695 52.595 52.25 58.5 48 58.5Z" fill="url(&quot;#paint0_linear_7869_6829&quot;)"></path><path d="M48 34C46.1932 33.9986 44.4033 34.3484 42.73 35.03C42.1201 34.5849 41.483 34.1782 40.8225 33.8125L39.5725 33.115C41.1431 31.3015 42.0052 28.9815 42 26.5825V23.4175C42 20.7653 40.9464 18.2218 39.0711 16.3464C37.1957 14.471 34.6522 13.4175 32 13.4175C29.3478 13.4175 26.8043 14.471 24.9289 16.3464C23.0536 18.2218 22 20.7653 22 23.4175V26.5825C21.9975 28.9828 22.8633 31.303 24.4375 33.115L23.1875 33.8125C20.8981 35.0752 18.9088 36.8182 17.3562 38.9218C15.8036 41.0255 14.7244 43.4401 14.1925 46C15.265 47.4055 16.4779 48.698 17.8125 49.8575V49.6925C17.8128 47.1674 18.4899 44.6885 19.7734 42.5138C21.0568 40.3392 22.8996 38.5483 25.11 37.3275L27.9725 35.7475C29.2418 36.306 30.6133 36.5944 32 36.5944C33.3867 36.5944 34.7582 36.306 36.0275 35.7475L38.89 37.3275L38.93 37.3525C36.43 39.4868 34.7607 42.4328 34.2147 45.6743C33.6686 48.9158 34.2806 52.2461 35.9434 55.0817C37.6062 57.9173 40.2137 60.0774 43.3092 61.1835C46.4047 62.2897 49.7907 62.2713 52.874 61.1316C55.9573 59.992 58.5412 57.8037 60.1731 54.9502C61.805 52.0967 62.3808 48.76 61.7996 45.5246C61.2184 42.2892 59.5173 39.3615 56.9942 37.2544C54.4712 35.1473 51.2872 33.9952 48 34ZM38 26.5825C38 28.1738 37.3679 29.6999 36.2427 30.8251C35.1174 31.9503 33.5913 32.5825 32 32.5825C30.4087 32.5825 28.8826 31.9503 27.7574 30.8251C26.6321 29.6999 26 28.1738 26 26.5825V23.4175C26 21.8262 26.6321 20.3001 27.7574 19.1748C28.8826 18.0496 30.4087 17.4175 32 17.4175C33.5913 17.4175 35.1174 18.0496 36.2427 19.1748C37.3679 20.3001 38 21.8262 38 23.4175V26.5825ZM56 50H50V56H46V50H40V46H46V40H50V46H56V50Z" fill="url(&quot;#paint1_linear_7869_6829&quot;)"></path><defs><linearGradient id="paint0_linear_7869_6829" x1="6.00058" y1="4.11676" x2="41.5445" y2="69.6381" gradientUnits="userSpaceOnUse"><stop offset="0.04" stop-color="white"></stop><stop offset="0.7" stop-color="#F8E8FF"></stop></linearGradient><linearGradient id="paint1_linear_7869_6829" x1="14.1925" y1="62" x2="62.769" y2="14.1781" gradientUnits="userSpaceOnUse"><stop stop-color="#F81E42"></stop><stop offset="1" stop-color="#FA6981"></stop></linearGradient><linearGradient id="paint0_linear_7869_6829" x1="6.00058" y1="4.11676" x2="41.5445" y2="69.6381" gradientUnits="userSpaceOnUse"><stop offset="0.04" stop-color="white"></stop><stop offset="0.7" stop-color="#F8E8FF"></stop></linearGradient><linearGradient id="paint1_linear_7869_6829" x1="14.1925" y1="62" x2="62.769" y2="14.1781" gradientUnits="userSpaceOnUse"><stop stop-color="#F81E42"></stop><stop offset="1" stop-color="#FA6981"></stop></linearGradient></defs></svg>