<svg xmlns:xlink="http://www.w3.org/1999/xlink" width="64" height="64" viewBox="0 0 64 64" fill="none" stroke="none" xmlns="http://www.w3.org/2000/svg"><title fill="none">ricon mental health dark</title><path d="M32 7.24968C30.185 7.24968 28.4125 4.17218 26.6925 4.49968C20.3082 5.74145 14.5539 9.16341 10.4143 14.1799C6.27475 19.1965 4.00732 25.4957 4 31.9997C4.00794 39.4233 6.96048 46.5406 12.2098 51.7899C17.4591 57.0392 24.5764 59.9917 32 59.9997C39.4236 59.9917 46.5409 57.0392 51.7902 51.7899C57.0395 46.5406 59.9921 39.4233 60 31.9997C59.9914 25.3458 57.6173 18.9117 53.3018 13.8469C48.9864 8.78222 43.0107 5.41688 36.4425 4.35218C35 4.11968 33.5125 7.24968 32 7.24968Z" fill="url(&quot;#paint0_linear_4556_1420&quot;)"></path><path d="M32 50.0001C28.895 50.0001 26.25 48.6451 24.945 47.8376L23.245 46.7851L25.355 43.3851L27.055 44.4401C27.995 45.0226 29.885 46.0001 32 46.0001C34.155 46.0001 35.775 45.1651 36.945 44.4401L38.645 43.3851L40.755 46.7851L39.055 47.8376C37.5575 48.7676 35.2 50.0001 32 50.0001ZM28.3825 37.0451L29.455 35.6626L26.705 33.5051L25.6325 34.8876C25.6325 34.8876 24.5175 36.2501 23.0625 36.2501H23.03C21.8325 36.2326 20.67 35.2126 20.33 34.8276L19.185 33.5051L16.5375 35.7901L17.68 37.1151C17.91 37.3801 20.0025 39.7076 22.98 39.7501H23.065C26.19 39.7501 28.165 37.3251 28.3825 37.0451ZM46.3825 37.0451L47.455 35.6626L44.705 33.5051L43.6325 34.8876C43.6325 34.8876 42.5175 36.2501 41.0625 36.2501H41.03C39.8325 36.2326 38.67 35.2126 38.33 34.8276L37.185 33.5051L34.5375 35.7901L35.68 37.1151C35.91 37.3801 38.0025 39.7076 40.98 39.7501H41.065C44.19 39.7501 46.165 37.3251 46.3825 37.0451ZM39.8 2.26261C36.985 1.49011 34.095 2.44009 32 4.71009C29.905 2.44009 27.015 1.49011 24.2 2.26261C20.7375 3.21261 18.5 6.40259 18.5 10.3926C18.5 18.3401 30.72 25.9576 31.25 26.2776L32.04 26.7626L32.8275 26.2626C33.345 25.9426 45.51 18.3251 45.51 10.3801C45.5 6.40261 43.2625 3.21261 39.8 2.26261Z" fill="url(&quot;#paint1_linear_4556_1420&quot;)"></path><defs><linearGradient id="paint0_linear_4556_1420" x1="4" y1="4.33984" x2="38.5533" y2="71.0999" gradientUnits="userSpaceOnUse"><stop offset="0.04" stop-color="white"></stop><stop offset="0.7" stop-color="#F8E8FF"></stop></linearGradient><linearGradient id="paint1_linear_4556_1420" x1="16.5375" y1="50.0001" x2="60.2418" y2="21.8507" gradientUnits="userSpaceOnUse"><stop stop-color="#F81E42"></stop><stop offset="1" stop-color="#FA6981"></stop></linearGradient><linearGradient id="paint0_linear_4556_1420" x1="4" y1="4.33984" x2="38.5533" y2="71.0999" gradientUnits="userSpaceOnUse"><stop offset="0.04" stop-color="white"></stop><stop offset="0.7" stop-color="#F8E8FF"></stop></linearGradient><linearGradient id="paint1_linear_4556_1420" x1="16.5375" y1="50.0001" x2="60.2418" y2="21.8507" gradientUnits="userSpaceOnUse"><stop stop-color="#F81E42"></stop><stop offset="1" stop-color="#FA6981"></stop></linearGradient></defs></svg>