<svg xmlns:xlink="http://www.w3.org/1999/xlink" width="64" height="64" viewBox="0 0 64 64" fill="none" stroke="none" xmlns="http://www.w3.org/2000/svg"><title fill="none">ricon family dark</title><path d="M57.2499 38.5744C56.5389 38.0526 55.7948 37.5775 55.0224 37.1519L49.9549 34.3544C51.593 33.4636 52.9608 32.148 53.9146 30.5458C54.8683 28.9436 55.3728 27.114 55.3749 25.2494V21.3369C55.3749 15.5194 50.6249 10.6494 44.7974 10.7594C42.0813 10.8118 39.4941 11.9277 37.5919 13.8672C35.6897 15.8068 34.6244 18.4152 34.6249 21.1319V25.2494C34.6247 27.1152 35.1276 28.9465 36.0805 30.5506C37.0335 32.1547 38.4013 33.4722 40.0399 34.3644L37.2499 35.8994C35.6663 34.2216 33.832 32.7997 31.8124 31.6844L26.3499 28.6694C28.1157 27.7085 29.5897 26.2893 30.6165 24.561C31.6434 22.8328 32.1853 20.8597 32.1849 18.8494V14.5994C32.1849 8.47189 27.3274 3.34939 21.1849 3.24189C19.7013 3.21633 18.2274 3.4865 16.8493 4.03664C15.4712 4.58679 14.2164 5.40588 13.1582 6.44613C12.1001 7.48638 11.2597 8.72695 10.6861 10.0955C10.1125 11.464 9.81718 12.933 9.8174 14.4169V18.8494C9.81705 20.8597 10.3589 22.8328 11.3858 24.561C12.4127 26.2893 13.8866 27.7085 15.6524 28.6694L10.1899 31.6844C8.47256 32.6316 6.888 33.8018 5.4774 35.1644C4.36964 36.2457 3.49086 37.5389 2.89342 38.967C2.29598 40.3951 1.99211 41.9289 1.9999 43.4769V56.9994C1.9999 57.795 2.31597 58.5581 2.87858 59.1207C3.44119 59.6833 4.20425 59.9994 4.9999 59.9994H58.9999C59.7956 59.9994 60.5586 59.6833 61.1212 59.1207C61.6838 58.5581 61.9999 57.795 61.9999 56.9994V47.9619C62.0018 46.1339 61.5727 44.3312 60.7474 42.7002C59.9221 41.0691 58.7238 39.6556 57.2499 38.5744Z" fill="url(&quot;#paint0_linear_4599_3735&quot;)"></path><path d="M45 9C41.8174 9 38.7652 10.2643 36.5147 12.5147C34.2643 14.7652 33 17.8174 33 21V34.545C32.6689 34.4968 32.3347 34.4726 32 34.4725C30.1435 34.4725 28.363 35.21 27.0503 36.5228C25.7375 37.8355 25 39.616 25 41.4725V43.0275C24.9991 43.9993 25.2009 44.9606 25.5926 45.85C25.9844 46.7394 26.5574 47.5372 27.275 48.1925L25.7575 49.0575C24.0099 50.0583 22.5577 51.503 21.548 53.2454C20.5383 54.9879 20.0069 56.9661 20.0075 58.98V60H44.0075V58.98C44.0082 56.9661 43.4767 54.9879 42.467 53.2454C41.4573 51.503 40.0051 50.0583 38.2575 49.0575L36.74 48.1925C37.4577 47.5372 38.0307 46.7394 38.4224 45.85C38.8141 44.9606 39.016 43.9993 39.015 43.0275V41.4725C39.0174 40.4799 38.8081 39.4983 38.4012 38.593C37.9942 37.6877 37.3989 36.8796 36.655 36.2225L40.055 34.345C38.4166 33.4564 37.0477 32.1429 36.0922 30.5425C35.1367 28.9421 34.6299 27.1139 34.625 25.25V21.1325C34.6252 20.7466 34.6469 20.361 34.69 19.9775H38.235C39.1371 19.9795 40.0308 19.8035 40.8648 19.4596C41.6988 19.1158 42.4569 18.6108 43.0955 17.9736C43.7341 17.3364 44.2407 16.5795 44.5864 15.7462C44.9321 14.9129 45.11 14.0196 45.11 13.1175C45.107 14.0215 45.2828 14.9172 45.6271 15.7531C45.9715 16.589 46.4777 17.3485 47.1166 17.9881C47.7555 18.6277 48.5145 19.1347 49.35 19.48C50.1855 19.8253 51.081 20.002 51.985 20H55.285C55.344 20.4509 55.3741 20.9052 55.375 21.36V25.25C55.3752 27.1158 54.8723 28.9471 53.9194 30.5512C52.9664 32.1553 51.5986 33.4728 49.96 34.365L55.0275 37.1625C55.708 37.5416 56.3666 37.959 57 38.4125V21C57 17.8174 55.7357 14.7652 53.4853 12.5147C51.2349 10.2643 48.1826 9 45 9Z" fill="url(&quot;#paint1_linear_4599_3735&quot;)"></path><defs><linearGradient id="paint0_linear_4599_3735" x1="1.99976" y1="3.24023" x2="36.2165" y2="72.7005" gradientUnits="userSpaceOnUse"><stop offset="0.04" stop-color="white"></stop><stop offset="0.7" stop-color="#F8E8FF"></stop></linearGradient><linearGradient id="paint1_linear_4599_3735" x1="20.0075" y1="60" x2="68.4866" y2="24.836" gradientUnits="userSpaceOnUse"><stop stop-color="#F81E42"></stop><stop offset="1" stop-color="#FA6981"></stop></linearGradient><linearGradient id="paint0_linear_4599_3735" x1="1.99976" y1="3.24023" x2="36.2165" y2="72.7005" gradientUnits="userSpaceOnUse"><stop offset="0.04" stop-color="white"></stop><stop offset="0.7" stop-color="#F8E8FF"></stop></linearGradient><linearGradient id="paint1_linear_4599_3735" x1="20.0075" y1="60" x2="68.4866" y2="24.836" gradientUnits="userSpaceOnUse"><stop stop-color="#F81E42"></stop><stop offset="1" stop-color="#FA6981"></stop></linearGradient><linearGradient id="paint0_linear_4599_3735" x1="1.99976" y1="3.24023" x2="36.2165" y2="72.7005" gradientUnits="userSpaceOnUse"><stop offset="0.04" stop-color="white"></stop><stop offset="0.7" stop-color="#F8E8FF"></stop></linearGradient><linearGradient id="paint1_linear_4599_3735" x1="20.0075" y1="60" x2="68.4866" y2="24.836" gradientUnits="userSpaceOnUse"><stop stop-color="#F81E42"></stop><stop offset="1" stop-color="#FA6981"></stop></linearGradient></defs></svg>