<svg xmlns:xlink="http://www.w3.org/1999/xlink" width="64" height="64" viewBox="0 0 64 64" fill="none" stroke="none" xmlns="http://www.w3.org/2000/svg"><title fill="none">ricon medicine dark</title><path d="M51.5 45.21L47.775 37.7975L40 41.705V24.97C39.9999 21.7875 38.7355 18.7353 36.485 16.485L30 10V4C30 3.46957 29.7893 2.96086 29.4142 2.58578C29.0391 2.21071 28.5304 2 28 2H20C19.4696 2 18.9609 2.21071 18.5858 2.58578C18.2107 2.96086 18 3.46957 18 4V10L11.515 16.485C9.26453 18.7353 8.00015 21.7875 8 24.97V60C8 60.5304 8.21071 61.0391 8.58578 61.4142C8.96086 61.7893 9.46957 62 10 62H38C38.5304 62 39.0391 61.7893 39.4142 61.4142C39.7893 61.0391 40 60.5304 40 60V42.8825L43.25 49.355L51.5 45.21Z" fill="url(&quot;#paint0_linear_2566_800&quot;)"></path><path d="M30 43.5H23.5V37H18.5V43.5H12V48.5H18.5V55H23.5V48.5H30V43.5ZM57.25 52.84L45.09 28.6375C44.7258 27.882 44.2149 27.2065 43.5869 26.6505C42.959 26.0944 42.2267 25.6689 41.4327 25.3987C40.6387 25.1286 39.7988 25.0192 38.9621 25.0769C38.1254 25.1346 37.3085 25.3583 36.5591 25.7349C35.8097 26.1115 35.1427 26.6335 34.5971 27.2705C34.0515 27.9075 33.6381 28.6467 33.3811 29.4451C33.124 30.2434 33.0285 31.085 33.1 31.9206C33.1715 32.7563 33.4086 33.5694 33.7975 34.3125L45.9575 58.515C46.7264 59.9841 48.0418 61.0921 49.6201 61.6003C51.1985 62.1084 52.9133 61.976 54.3949 61.2314C55.8764 60.4869 57.006 59.1899 57.5401 57.6202C58.0742 56.0504 57.97 54.3337 57.25 52.84ZM43.5325 48.6625L40.25 42.1375L47.5 38.5L50.7775 45.025L43.5325 48.6625Z" fill="url(&quot;#paint1_linear_2566_800&quot;)"></path><defs><linearGradient id="paint0_linear_2566_800" x1="8" y1="2" x2="51.2332" y2="62.1917" gradientUnits="userSpaceOnUse"><stop offset="0.04" stop-color="white"></stop><stop offset="0.7" stop-color="#F8E8FF"></stop></linearGradient><linearGradient id="paint1_linear_2566_800" x1="12" y1="61.9044" x2="47.9739" y2="17.109" gradientUnits="userSpaceOnUse"><stop stop-color="#F81E42"></stop><stop offset="1" stop-color="#FA6981"></stop></linearGradient><linearGradient id="paint0_linear_2566_800" x1="8" y1="2" x2="51.2332" y2="62.1917" gradientUnits="userSpaceOnUse"><stop offset="0.04" stop-color="white"></stop><stop offset="0.7" stop-color="#F8E8FF"></stop></linearGradient><linearGradient id="paint1_linear_2566_800" x1="12" y1="61.9044" x2="47.9739" y2="17.109" gradientUnits="userSpaceOnUse"><stop stop-color="#F81E42"></stop><stop offset="1" stop-color="#FA6981"></stop></linearGradient><linearGradient id="paint0_linear_2566_800" x1="8" y1="2" x2="51.2332" y2="62.1917" gradientUnits="userSpaceOnUse"><stop offset="0.04" stop-color="white"></stop><stop offset="0.7" stop-color="#F8E8FF"></stop></linearGradient><linearGradient id="paint1_linear_2566_800" x1="12" y1="61.9044" x2="47.9739" y2="17.109" gradientUnits="userSpaceOnUse"><stop stop-color="#F81E42"></stop><stop offset="1" stop-color="#FA6981"></stop></linearGradient></defs></svg>