<svg xmlns:xlink="http://www.w3.org/1999/xlink" width="64" height="64" viewBox="0 0 64 64" fill="none" stroke="none" xmlns="http://www.w3.org/2000/svg"><title fill="none">ricon family light</title><path d="M44 58.9802C44.0007 56.9663 43.4692 54.988 42.4595 53.2456C41.4498 51.5031 39.9976 50.0584 38.25 49.0577L36.7325 48.1927C37.4501 47.5374 38.0232 46.7395 38.4149 45.8502C38.8066 44.9608 39.0085 43.9995 39.0075 43.0277V41.4727C39.0075 39.6161 38.27 37.8357 36.9572 36.5229C35.6445 35.2102 33.864 34.4727 32.0075 34.4727C30.151 34.4727 28.3705 35.2102 27.0578 36.5229C25.745 37.8357 25.0075 39.6161 25.0075 41.4727V43.0277C25.0065 43.9995 25.2084 44.9608 25.6001 45.8502C25.9918 46.7395 26.5649 47.5374 27.2825 48.1927L25.75 49.0577C24.0024 50.0584 22.5502 51.5031 21.5405 53.2456C20.5308 54.988 19.9993 56.9663 20 58.9802V60.0002H44V58.9802Z" fill="url(&quot;#paint0_linear_3666_1190&quot;)"></path><path d="M61.5575 38.7775C60.2613 37.169 58.7239 35.7708 57 34.6325V24.8825C57 24.7275 57 24.57 57 24.4125V20.595C56.9987 17.713 55.9602 14.9276 54.0744 12.7482C52.1886 10.5688 49.5814 9.14095 46.7294 8.7256C43.8775 8.31024 40.9713 8.93518 38.5422 10.4862C36.113 12.0371 34.3233 14.4105 33.5 17.1725V14.5C33.5 11.1848 32.183 8.00537 29.8388 5.66117C27.4946 3.31696 24.3152 2 21 2C17.6848 2 14.5054 3.31696 12.1612 5.66117C9.81696 8.00537 8.5 11.1848 8.5 14.5V18.5C8.49749 21.6328 9.67683 24.6512 11.8025 26.9525L9.085 28.5C6.47528 29.9869 4.1997 31.9953 2.4 34.4C2.14036 34.7462 2 35.1673 2 35.6V58C2 58.5304 2.21071 59.0391 2.58578 59.4142C2.96086 59.7893 3.46957 60 4 60H17V58.98C17.0016 57.9782 17.1089 56.9793 17.32 56H6V36.2875C7.40567 34.5465 9.1254 33.0845 11.07 31.9775L15.245 29.5925C17.6291 30.8327 20.35 31.2696 23.0025 30.838C25.655 30.4064 28.0971 29.1295 29.965 27.1975L32.84 31.5C34.2022 31.6158 35.5261 32.0096 36.7301 32.6572C37.9341 33.3047 38.9925 34.1923 39.84 35.265L39.8775 35.245C41.4797 36.0031 43.23 36.3963 45.0025 36.3963C46.775 36.3963 48.5253 36.0031 50.1275 35.245L53.895 37.3975C55.4397 38.2797 56.827 39.4126 58 40.75V56H46.68C46.8911 56.9793 46.9984 57.9782 47 58.98V60H60C60.5304 60 61.0391 59.7893 61.4142 59.4142C61.7893 59.0391 62 58.5304 62 58V40.0325C62.0001 39.5759 61.8439 39.1331 61.5575 38.7775ZM29.5 18.5C29.5 20.7543 28.6045 22.9163 27.0104 24.5104C25.4163 26.1045 23.2543 27 21 27C18.7457 27 16.5837 26.1045 14.9896 24.5104C13.3955 22.9163 12.5 20.7543 12.5 18.5V14.5C12.5 12.2457 13.3955 10.0837 14.9896 8.48959C16.5837 6.89553 18.7457 6 21 6C23.2543 6 25.4163 6.89553 27.0104 8.48959C28.6045 10.0837 29.5 12.2457 29.5 14.5V18.5ZM53 24.405C53 26.5267 52.1572 28.5616 50.6569 30.0619C49.1566 31.5621 47.1217 32.405 45 32.405C42.8783 32.405 40.8434 31.5621 39.3431 30.0619C37.8428 28.5616 37 26.5267 37 24.405V20.595C36.9993 19.7065 37.148 18.8242 37.44 17.985H38.235C39.8016 17.9887 41.3222 17.456 42.5439 16.4753C43.7657 15.4947 44.6147 14.1253 44.95 12.595H45C45.09 12.595 45.18 12.595 45.27 12.595C45.6027 14.1279 46.4506 15.5004 47.6725 16.4839C48.8944 17.4675 50.4165 18.0025 51.985 18H52.56C52.8501 18.8345 52.9989 19.7115 53 20.595V24.405Z" fill="url(&quot;#paint1_linear_3666_1190&quot;)"></path><defs><linearGradient id="paint0_linear_3666_1190" x1="20" y1="60.0002" x2="45.479" y2="36.0458" gradientUnits="userSpaceOnUse"><stop stop-color="#F81E42"></stop><stop offset="1" stop-color="#FA6981"></stop></linearGradient><linearGradient id="paint1_linear_3666_1190" x1="2" y1="2" x2="32.3849" y2="72.7235" gradientUnits="userSpaceOnUse"><stop offset="0.272135" stop-color="#34263B"></stop><stop offset="0.658079" stop-color="#13172C"></stop></linearGradient><linearGradient id="paint0_linear_3666_1190" x1="20" y1="60.0002" x2="45.479" y2="36.0458" gradientUnits="userSpaceOnUse"><stop stop-color="#F81E42"></stop><stop offset="1" stop-color="#FA6981"></stop></linearGradient><linearGradient id="paint1_linear_3666_1190" x1="2" y1="2" x2="32.3849" y2="72.7235" gradientUnits="userSpaceOnUse"><stop offset="0.272135" stop-color="#34263B"></stop><stop offset="0.658079" stop-color="#13172C"></stop></linearGradient></defs></svg>