<svg xmlns:xlink="http://www.w3.org/1999/xlink" width="64" height="64" viewBox="0 0 64 64" fill="none" stroke="none" xmlns="http://www.w3.org/2000/svg"><title fill="none">ricon add user light</title><path d="M57.6375 14.4325L33.9125 2.57003C33.3181 2.27526 32.6635 2.12189 32 2.12189C31.3365 2.12189 30.682 2.27526 30.0875 2.57003L6.36252 14.4325C5.52534 14.8539 4.8492 15.5379 4.43746 16.3799C4.02573 17.2219 3.90106 18.1755 4.08251 19.095L7.40502 35.7025C8.77074 42.5374 12.6381 48.6165 18.25 52.75L29.47 61.0375C30.2039 61.5846 31.0947 61.88 32.01 61.88C32.9253 61.88 33.8162 61.5846 34.55 61.0375L35.9675 59.99C35.0245 59.0439 34.1963 57.99 33.5 56.85L32.175 57.8275C32.1282 57.8628 32.0711 57.8819 32.0125 57.8819C31.9539 57.8819 31.8969 57.8628 31.85 57.8275L20.63 49.54C19.7305 48.875 18.8777 48.1492 18.0775 47.3675C18.4274 45.2644 19.2485 43.2677 20.4793 41.5268C21.7102 39.786 23.3189 38.3461 25.185 37.315L28 35.75C29.522 36.4143 31.1855 36.689 32.8402 36.5495C34.495 36.41 36.089 35.8606 37.4782 34.9508C38.8675 34.0411 40.0084 32.7997 40.7978 31.3387C41.5872 29.8777 42.0004 28.2432 42 26.5825V23.4175C42 20.7654 40.9465 18.2218 39.0711 16.3465C37.1957 14.4711 34.6522 13.4175 32 13.4175C29.3479 13.4175 26.8043 14.4711 24.9289 16.3465C23.0536 18.2218 22 20.7654 22 23.4175V26.5825C21.9989 28.9941 22.873 31.3242 24.46 33.14L23.25 33.8125C19.3829 35.9493 16.4288 39.4243 14.9425 43.585C13.1823 40.9621 11.9572 38.0175 11.3375 34.92L8.00002 18.31C7.98907 18.2508 7.99751 18.1896 8.02408 18.1356C8.05065 18.0816 8.09394 18.0375 8.14752 18.01L31.8725 6.14753C31.9115 6.12871 31.9542 6.11893 31.9975 6.11893C32.0408 6.11893 32.0835 6.12871 32.1225 6.14753L55.8475 18C55.9011 18.0275 55.9444 18.0716 55.971 18.1256C55.9975 18.1796 56.006 18.2408 55.995 18.3L53.2875 31.83C54.5979 32.2581 55.8507 32.8459 57.0175 33.58L59.9175 19.08C60.0954 18.1628 59.969 17.2125 59.5575 16.3736C59.146 15.5348 58.4718 14.8532 57.6375 14.4325ZM26 23.4175C26 21.8262 26.6322 20.3001 27.7574 19.1749C28.8826 18.0497 30.4087 17.4175 32 17.4175C33.5913 17.4175 35.1174 18.0497 36.2427 19.1749C37.3679 20.3001 38 21.8262 38 23.4175V26.5825C38 28.1738 37.3679 29.7 36.2427 30.8252C35.1174 31.9504 33.5913 32.5825 32 32.5825C30.4087 32.5825 28.8826 31.9504 27.7574 30.8252C26.6322 29.7 26 28.1738 26 26.5825V23.4175Z" fill="url(&quot;#paint0_linear_7869_6818&quot;)"></path><path d="M57.9 38.1C55.942 36.1422 53.4474 34.809 50.7317 34.2689C48.016 33.7288 45.2012 34.0062 42.6431 35.0658C40.085 36.1255 37.8986 37.9199 36.3603 40.2222C34.822 42.5244 34.001 45.2311 34.001 48C34.001 50.7689 34.822 53.4756 36.3603 55.7778C37.8986 58.0801 40.085 59.8745 42.6431 60.9342C45.2012 61.9938 48.016 62.2712 50.7317 61.7311C53.4474 61.191 55.942 59.8578 57.9 57.9C59.2001 56.6 60.2315 55.0566 60.9352 53.3579C61.6388 51.6592 62.001 49.8386 62.001 48C62.001 46.1614 61.6388 44.3408 60.9352 42.6421C60.2315 40.9435 59.2001 39.4 57.9 38.1ZM56 50H50V56H46V50H40V46H46V40H50V46H56V50Z" fill="url(&quot;#paint1_linear_7869_6818&quot;)"></path><defs><linearGradient id="paint0_linear_7869_6818" x1="4.00134" y1="2.12189" x2="37.4238" y2="72.5864" gradientUnits="userSpaceOnUse"><stop offset="0.272135" stop-color="#34263B"></stop><stop offset="0.658079" stop-color="#13172C"></stop></linearGradient><linearGradient id="paint1_linear_7869_6818" x1="34.001" y1="62" x2="62.001" y2="34" gradientUnits="userSpaceOnUse"><stop stop-color="#F81E42"></stop><stop offset="1" stop-color="#FA6981"></stop></linearGradient><linearGradient id="paint0_linear_7869_6818" x1="4.00134" y1="2.12189" x2="37.4238" y2="72.5864" gradientUnits="userSpaceOnUse"><stop offset="0.272135" stop-color="#34263B"></stop><stop offset="0.658079" stop-color="#13172C"></stop></linearGradient><linearGradient id="paint1_linear_7869_6818" x1="34.001" y1="62" x2="62.001" y2="34" gradientUnits="userSpaceOnUse"><stop stop-color="#F81E42"></stop><stop offset="1" stop-color="#FA6981"></stop></linearGradient></defs></svg>